<svg width="698" height="294" viewBox="0 0 698 294" fill="none" xmlns="http://www.w3.org/2000/svg">
<path d="M5.06605 25.7299V26.7185H0.791096V25.7299H2.3568V21.2252C2.3568 21.047 2.36214 20.8636 2.37283 20.6748L1.26134 21.6046C1.19722 21.6544 1.13309 21.6865 1.06897 21.7008C1.00841 21.7114 0.949625 21.7114 0.892626 21.7008C0.839189 21.6901 0.791096 21.6723 0.748346 21.6473C0.705597 21.6188 0.673535 21.5885 0.65216 21.5565L0.235352 20.9847L2.59192 18.9808H3.67669V25.7299H5.06605Z" fill="#808080"/>
<path d="M11.6664 22.855C11.6664 23.5283 11.5933 24.1143 11.4473 24.6131C11.3048 25.1083 11.1053 25.5179 10.8488 25.8421C10.5958 26.1663 10.2948 26.4086 9.94568 26.5689C9.60012 26.7256 9.22606 26.804 8.8235 26.804C8.42095 26.804 8.04689 26.7256 7.70133 26.5689C7.35933 26.4086 7.06187 26.1663 6.80893 25.8421C6.556 25.5179 6.35828 25.1083 6.21578 24.6131C6.07328 24.1143 6.00203 23.5283 6.00203 22.855C6.00203 22.1781 6.07328 21.5921 6.21578 21.0969C6.35828 20.6017 6.556 20.1921 6.80893 19.8679C7.06187 19.5437 7.35933 19.3032 7.70133 19.1465C8.04689 18.9862 8.42095 18.906 8.8235 18.906C9.22606 18.906 9.60012 18.9862 9.94568 19.1465C10.2948 19.3032 10.5958 19.5437 10.8488 19.8679C11.1053 20.1921 11.3048 20.6017 11.4473 21.0969C11.5933 21.5921 11.6664 22.1781 11.6664 22.855ZM10.3037 22.855C10.3037 22.2957 10.2627 21.8326 10.1808 21.4656C10.0989 21.0987 9.98843 20.8066 9.84949 20.5893C9.71412 20.372 9.55737 20.2206 9.37925 20.1351C9.20113 20.046 9.01588 20.0015 8.8235 20.0015C8.63469 20.0015 8.45123 20.046 8.2731 20.1351C8.09854 20.2206 7.94358 20.372 7.8082 20.5893C7.67283 20.8066 7.56417 21.0987 7.48224 21.4656C7.40386 21.8326 7.36468 22.2957 7.36468 22.855C7.36468 23.4143 7.40386 23.8774 7.48224 24.2444C7.56417 24.6113 7.67283 24.9034 7.8082 25.1207C7.94358 25.338 8.09854 25.4912 8.2731 25.5803C8.45123 25.6658 8.63469 25.7085 8.8235 25.7085C9.01588 25.7085 9.20113 25.6658 9.37925 25.5803C9.55737 25.4912 9.71412 25.338 9.84949 25.1207C9.98843 24.9034 10.0989 24.6113 10.1808 24.2444C10.2627 23.8774 10.3037 23.4143 10.3037 22.855Z" fill="#808080"/>
<path d="M17.8659 22.855C17.8659 23.5283 17.7928 24.1143 17.6468 24.6131C17.5043 25.1083 17.3048 25.5179 17.0483 25.8421C16.7954 26.1663 16.4943 26.4086 16.1452 26.5689C15.7996 26.7256 15.4256 26.804 15.023 26.804C14.6205 26.804 14.2464 26.7256 13.9009 26.5689C13.5589 26.4086 13.2614 26.1663 13.0085 25.8421C12.7555 25.5179 12.5578 25.1083 12.4153 24.6131C12.2728 24.1143 12.2016 23.5283 12.2016 22.855C12.2016 22.1781 12.2728 21.5921 12.4153 21.0969C12.5578 20.6017 12.7555 20.1921 13.0085 19.8679C13.2614 19.5437 13.5589 19.3032 13.9009 19.1465C14.2464 18.9862 14.6205 18.906 15.023 18.906C15.4256 18.906 15.7996 18.9862 16.1452 19.1465C16.4943 19.3032 16.7954 19.5437 17.0483 19.8679C17.3048 20.1921 17.5043 20.6017 17.6468 21.0969C17.7928 21.5921 17.8659 22.1781 17.8659 22.855ZM16.5032 22.855C16.5032 22.2957 16.4623 21.8326 16.3803 21.4656C16.2984 21.0987 16.188 20.8066 16.049 20.5893C15.9136 20.372 15.7569 20.2206 15.5788 20.1351C15.4006 20.046 15.2154 20.0015 15.023 20.0015C14.8342 20.0015 14.6507 20.046 14.4726 20.1351C14.2981 20.2206 14.1431 20.372 14.0077 20.5893C13.8724 20.8066 13.7637 21.0987 13.6818 21.4656C13.6034 21.8326 13.5642 22.2957 13.5642 22.855C13.5642 23.4143 13.6034 23.8774 13.6818 24.2444C13.7637 24.6113 13.8724 24.9034 14.0077 25.1207C14.1431 25.338 14.2981 25.4912 14.4726 25.5803C14.6507 25.6658 14.8342 25.7085 15.023 25.7085C15.2154 25.7085 15.4006 25.6658 15.5788 25.5803C15.7569 25.4912 15.9136 25.338 16.049 25.1207C16.188 24.9034 16.2984 24.6113 16.3803 24.2444C16.4623 23.8774 16.5032 23.4143 16.5032 22.855Z" fill="#808080"/>
<path d="M5.73443 79.2096C5.95174 79.2096 6.14233 79.1793 6.30621 79.1188C6.47008 79.0546 6.60724 78.9674 6.71767 78.8569C6.83167 78.7465 6.91717 78.6147 6.97417 78.4615C7.03117 78.3083 7.05967 78.1427 7.05967 77.9645C7.05967 77.5406 6.94211 77.22 6.70698 77.0027C6.47186 76.7854 6.14768 76.6767 5.73443 76.6767C5.32119 76.6767 4.997 76.7854 4.76188 77.0027C4.52676 77.22 4.4092 77.5406 4.4092 77.9645C4.4092 78.1427 4.43769 78.3083 4.49469 78.4615C4.55169 78.6147 4.63541 78.7465 4.74585 78.8569C4.85985 78.9674 4.99878 79.0546 5.16266 79.1188C5.32653 79.1793 5.51712 79.2096 5.73443 79.2096ZM5.73443 73.3369C5.5385 73.3369 5.36928 73.3672 5.22678 73.4277C5.08428 73.4883 4.96494 73.5702 4.86875 73.6735C4.77613 73.7733 4.70666 73.8891 4.66035 74.0209C4.6176 74.1527 4.59622 74.2916 4.59622 74.4377C4.59622 74.5909 4.61404 74.7405 4.64966 74.8866C4.68885 75.0291 4.75297 75.1573 4.84203 75.2713C4.9311 75.3817 5.04866 75.4708 5.19472 75.5385C5.34078 75.6062 5.52068 75.64 5.73443 75.64C5.94818 75.64 6.12808 75.6062 6.27415 75.5385C6.42021 75.4708 6.53777 75.3817 6.62683 75.2713C6.71589 75.1573 6.77823 75.0291 6.81386 74.8866C6.85305 74.7405 6.87264 74.5909 6.87264 74.4377C6.87264 74.2916 6.84948 74.1527 6.80317 74.0209C6.75686 73.8891 6.68739 73.7733 6.59477 73.6735C6.50214 73.5702 6.38458 73.4883 6.24208 73.4277C6.09958 73.3672 5.93037 73.3369 5.73443 73.3369ZM7.03829 76.1263C7.50854 76.2795 7.85588 76.5146 8.08031 76.8317C8.30475 77.1452 8.41697 77.5299 8.41697 77.9859C8.41697 78.3279 8.35106 78.6378 8.21925 78.9157C8.091 79.1936 7.90932 79.4305 7.67419 79.6264C7.43907 79.8224 7.15585 79.9738 6.82455 80.0806C6.4968 80.1875 6.13343 80.2409 5.73443 80.2409C5.33544 80.2409 4.97028 80.1875 4.63897 80.0806C4.31123 79.9738 4.02979 79.8224 3.79467 79.6264C3.55955 79.4305 3.37608 79.1936 3.24427 78.9157C3.11602 78.6378 3.0519 78.3279 3.0519 77.9859C3.0519 77.5299 3.16411 77.1452 3.38855 76.8317C3.61298 76.5146 3.96032 76.2795 4.43057 76.1263C4.05651 75.9696 3.77508 75.7469 3.58627 75.4583C3.40102 75.1698 3.30839 74.8224 3.30839 74.4163C3.30839 74.1242 3.36717 73.8517 3.48474 73.5987C3.60586 73.3458 3.7733 73.1267 3.98704 72.9415C4.20079 72.7526 4.45551 72.6066 4.75119 72.5033C5.05044 72.3964 5.37819 72.343 5.73443 72.343C6.09068 72.343 6.41664 72.3964 6.71233 72.5033C7.01157 72.6066 7.26807 72.7526 7.48182 72.9415C7.69557 73.1267 7.86122 73.3458 7.97878 73.5987C8.09991 73.8517 8.16047 74.1242 8.16047 74.4163C8.16047 74.8224 8.06606 75.1698 7.87725 75.4583C7.69201 75.7469 7.41235 75.9696 7.03829 76.1263Z" fill="#808080"/>
<path d="M14.7661 76.292C14.7661 76.9653 14.6931 77.5513 14.547 78.05C14.4045 78.5452 14.205 78.9549 13.9485 79.2791C13.6956 79.6033 13.3946 79.8455 13.0454 80.0058C12.6999 80.1626 12.3258 80.2409 11.9233 80.2409C11.5207 80.2409 11.1466 80.1626 10.8011 80.0058C10.4591 79.8455 10.1616 79.6033 9.90869 79.2791C9.65576 78.9549 9.45804 78.5452 9.31554 78.05C9.17304 77.5513 9.10179 76.9653 9.10179 76.292C9.10179 75.6151 9.17304 75.0291 9.31554 74.5339C9.45804 74.0387 9.65576 73.629 9.90869 73.3048C10.1616 72.9806 10.4591 72.7402 10.8011 72.5834C11.1466 72.4231 11.5207 72.343 11.9233 72.343C12.3258 72.343 12.6999 72.4231 13.0454 72.5834C13.3946 72.7402 13.6956 72.9806 13.9485 73.3048C14.205 73.629 14.4045 74.0387 14.547 74.5339C14.6931 75.0291 14.7661 75.6151 14.7661 76.292ZM13.4035 76.292C13.4035 75.7326 13.3625 75.2695 13.2806 74.9026C13.1986 74.5357 13.0882 74.2435 12.9493 74.0262C12.8139 73.8089 12.6571 73.6575 12.479 73.572C12.3009 73.483 12.1156 73.4384 11.9233 73.4384C11.7345 73.4384 11.551 73.483 11.3729 73.572C11.1983 73.6575 11.0433 73.8089 10.908 74.0262C10.7726 74.2435 10.6639 74.5357 10.582 74.9026C10.5036 75.2695 10.4644 75.7326 10.4644 76.292C10.4644 76.8513 10.5036 77.3144 10.582 77.6813C10.6639 78.0482 10.7726 78.3404 10.908 78.5577C11.0433 78.775 11.1983 78.9282 11.3729 79.0172C11.551 79.1027 11.7345 79.1455 11.9233 79.1455C12.1156 79.1455 12.3009 79.1027 12.479 79.0172C12.6571 78.9282 12.8139 78.775 12.9493 78.5577C13.0882 78.3404 13.1986 78.0482 13.2806 77.6813C13.3625 77.3144 13.4035 76.8513 13.4035 76.292Z" fill="#808080"/>
<path d="M4.39851 48.0291C4.39851 48.4602 4.50894 48.7897 4.72982 49.0177C4.95425 49.2422 5.27131 49.3544 5.68099 49.3544C5.89474 49.3544 6.08533 49.3205 6.25277 49.2529C6.42021 49.1852 6.56092 49.0925 6.67492 48.975C6.78892 48.8574 6.87442 48.7185 6.93142 48.5582C6.99198 48.3979 7.02226 48.2251 7.02226 48.0398C7.02226 47.8297 6.9902 47.6426 6.92608 47.4787C6.86195 47.3113 6.77111 47.1706 6.65355 47.0566C6.53599 46.9426 6.39527 46.8553 6.2314 46.7948C6.07108 46.7342 5.89474 46.7039 5.70237 46.7039C5.50287 46.7039 5.32297 46.7378 5.16266 46.8054C5.00235 46.8696 4.86519 46.9604 4.75119 47.078C4.63719 47.1955 4.54991 47.3362 4.48935 47.5001C4.42879 47.6604 4.39851 47.8368 4.39851 48.0291ZM6.15124 50.4392C6.2118 50.3643 6.2688 50.2913 6.32224 50.2201C6.37568 50.1488 6.42733 50.0776 6.47721 50.0063C6.29908 50.1203 6.10315 50.2076 5.8894 50.2682C5.67565 50.3252 5.45122 50.3537 5.21609 50.3537C4.94891 50.3537 4.68707 50.3073 4.43057 50.2147C4.17407 50.1221 3.94607 49.9832 3.74658 49.7979C3.54708 49.6091 3.38499 49.3775 3.2603 49.1032C3.13918 48.8254 3.07862 48.5012 3.07862 48.1307C3.07862 47.7851 3.14274 47.4609 3.27099 47.1581C3.39924 46.8553 3.57914 46.5899 3.8107 46.3619C4.04226 46.1339 4.32013 45.954 4.64432 45.8222C4.9685 45.6904 5.32653 45.6245 5.7184 45.6245C6.11383 45.6245 6.4683 45.6868 6.7818 45.8115C7.09886 45.9362 7.36782 46.1108 7.58869 46.3352C7.81313 46.5596 7.98413 46.8286 8.10169 47.1421C8.22281 47.4556 8.28337 47.7994 8.28337 48.1734C8.28337 48.4121 8.262 48.6383 8.21925 48.8521C8.18006 49.0658 8.12306 49.2724 8.04825 49.4719C7.97344 49.6679 7.8826 49.8603 7.77572 50.0491C7.66885 50.2379 7.54951 50.4249 7.4177 50.6102L5.64893 53.1324C5.58837 53.2179 5.49753 53.2909 5.3764 53.3515C5.25528 53.4085 5.11813 53.437 4.96494 53.437H3.75192L6.15124 50.4392Z" fill="#808080"/>
<path d="M14.7661 49.5735C14.7661 50.2468 14.6931 50.8328 14.547 51.3316C14.4045 51.8267 14.205 52.2364 13.9485 52.5606C13.6956 52.8848 13.3946 53.127 13.0454 53.2873C12.6999 53.4441 12.3258 53.5225 11.9233 53.5225C11.5207 53.5225 11.1466 53.4441 10.8011 53.2873C10.4591 53.127 10.1616 52.8848 9.90869 52.5606C9.65576 52.2364 9.45804 51.8267 9.31554 51.3316C9.17304 50.8328 9.10179 50.2468 9.10179 49.5735C9.10179 48.8966 9.17304 48.3106 9.31554 47.8154C9.45804 47.3202 9.65576 46.9105 9.90869 46.5863C10.1616 46.2622 10.4591 46.0217 10.8011 45.865C11.1466 45.7046 11.5207 45.6245 11.9233 45.6245C12.3258 45.6245 12.6999 45.7046 13.0454 45.865C13.3946 46.0217 13.6956 46.2622 13.9485 46.5863C14.205 46.9105 14.4045 47.3202 14.547 47.8154C14.6931 48.3106 14.7661 48.8966 14.7661 49.5735ZM13.4035 49.5735C13.4035 49.0142 13.3625 48.551 13.2806 48.1841C13.1986 47.8172 13.0882 47.5251 12.9493 47.3077C12.8139 47.0904 12.6571 46.939 12.479 46.8535C12.3009 46.7645 12.1156 46.7199 11.9233 46.7199C11.7345 46.7199 11.551 46.7645 11.3729 46.8535C11.1983 46.939 11.0433 47.0904 10.908 47.3077C10.7726 47.5251 10.6639 47.8172 10.582 48.1841C10.5036 48.551 10.4644 49.0142 10.4644 49.5735C10.4644 50.1328 10.5036 50.5959 10.582 50.9628C10.6639 51.3298 10.7726 51.6219 10.908 51.8392C11.0433 52.0565 11.1983 52.2097 11.3729 52.2988C11.551 52.3843 11.7345 52.427 11.9233 52.427C12.1156 52.427 12.3009 52.3843 12.479 52.2988C12.6571 52.2097 12.8139 52.0565 12.9493 51.8392C13.0882 51.6219 13.1986 51.3298 13.2806 50.9628C13.3625 50.5959 13.4035 50.1328 13.4035 49.5735Z" fill="#808080"/>
<path d="M6.4398 184.117V181.589C6.4398 181.351 6.45583 181.087 6.48789 180.799L4.08857 184.117H6.4398ZM8.56125 184.117V184.881C8.56125 184.952 8.53809 185.015 8.49178 185.068C8.44547 185.118 8.37956 185.143 8.29406 185.143H7.58869V187.029H6.4398V185.143H3.18015C3.09108 185.143 3.01271 185.116 2.94502 185.063C2.87734 185.006 2.83459 184.936 2.81677 184.854L2.67784 184.187L6.33827 179.297H7.58869V184.117H8.56125Z" fill="#808080"/>
<path d="M14.7661 183.166C14.7661 183.839 14.6931 184.425 14.547 184.924C14.4045 185.419 14.205 185.829 13.9485 186.153C13.6956 186.477 13.3946 186.719 13.0454 186.88C12.6999 187.036 12.3258 187.115 11.9233 187.115C11.5207 187.115 11.1466 187.036 10.8011 186.88C10.4591 186.719 10.1616 186.477 9.90869 186.153C9.65576 185.829 9.45804 185.419 9.31554 184.924C9.17304 184.425 9.10179 183.839 9.10179 183.166C9.10179 182.489 9.17304 181.903 9.31554 181.408C9.45804 180.913 9.65576 180.503 9.90869 180.179C10.1616 179.855 10.4591 179.614 10.8011 179.457C11.1466 179.297 11.5207 179.217 11.9233 179.217C12.3258 179.217 12.6999 179.297 13.0454 179.457C13.3946 179.614 13.6956 179.855 13.9485 180.179C14.205 180.503 14.4045 180.913 14.547 181.408C14.6931 181.903 14.7661 182.489 14.7661 183.166ZM13.4035 183.166C13.4035 182.607 13.3625 182.143 13.2806 181.777C13.1986 181.41 13.0882 181.117 12.9493 180.9C12.8139 180.683 12.6571 180.531 12.479 180.446C12.3009 180.357 12.1156 180.312 11.9233 180.312C11.7345 180.312 11.551 180.357 11.3729 180.446C11.1983 180.531 11.0433 180.683 10.908 180.9C10.7726 181.117 10.6639 181.41 10.582 181.777C10.5036 182.143 10.4644 182.607 10.4644 183.166C10.4644 183.725 10.5036 184.188 10.582 184.555C10.6639 184.922 10.7726 185.214 10.908 185.432C11.0433 185.649 11.1983 185.802 11.3729 185.891C11.551 185.977 11.7345 186.019 11.9233 186.019C12.1156 186.019 12.3009 185.977 12.479 185.891C12.6571 185.802 12.8139 185.649 12.9493 185.432C13.0882 185.214 13.1986 184.922 13.2806 184.555C13.3625 184.188 13.4035 183.725 13.4035 183.166Z" fill="#808080"/>
<path d="M7.87725 238.474C8.01975 238.474 8.13197 238.515 8.21391 238.597C8.29941 238.675 8.34215 238.78 8.34215 238.912V239.703H3.04121V239.265C3.04121 239.176 3.05902 239.083 3.09465 238.987C3.13383 238.887 3.19439 238.798 3.27633 238.72L5.62221 236.368C5.81815 236.169 5.99271 235.978 6.1459 235.797C6.30264 235.615 6.43267 235.435 6.53599 235.257C6.6393 235.079 6.71767 234.899 6.77111 234.717C6.82811 234.532 6.85661 234.338 6.85661 234.135C6.85661 233.95 6.82989 233.787 6.77645 233.649C6.72302 233.506 6.64642 233.387 6.54667 233.291C6.45049 233.194 6.33293 233.123 6.19399 233.077C6.05862 233.027 5.90543 233.002 5.73443 233.002C5.57768 233.002 5.43162 233.025 5.29625 233.071C5.16444 233.114 5.04688 233.176 4.94356 233.258C4.84025 233.337 4.75297 233.429 4.68172 233.536C4.61047 233.643 4.55704 233.761 4.52141 233.889C4.46085 234.053 4.38248 234.162 4.28629 234.215C4.1901 234.268 4.05117 234.281 3.86948 234.252L3.1748 234.129C3.22824 233.759 3.33155 233.435 3.48474 233.157C3.63792 232.875 3.82851 232.642 4.05651 232.457C4.28807 232.268 4.55169 232.127 4.84738 232.035C5.14663 231.939 5.46725 231.89 5.80924 231.89C6.16549 231.89 6.49146 231.944 6.78714 232.051C7.08282 232.154 7.33576 232.302 7.54594 232.494C7.75613 232.687 7.92 232.918 8.03756 233.189C8.15513 233.46 8.21391 233.761 8.21391 234.092C8.21391 234.377 8.17116 234.641 8.08566 234.883C8.00372 235.125 7.8915 235.357 7.749 235.578C7.61007 235.798 7.4462 236.012 7.25739 236.219C7.06857 236.425 6.87086 236.636 6.66423 236.849L4.92219 238.629C5.08963 238.579 5.25528 238.542 5.41915 238.517C5.58659 238.488 5.74512 238.474 5.89474 238.474H7.87725Z" fill="#808080"/>
<path d="M14.7661 235.839C14.7661 236.513 14.6931 237.099 14.547 237.598C14.4045 238.093 14.205 238.502 13.9485 238.827C13.6956 239.151 13.3946 239.393 13.0454 239.553C12.6999 239.71 12.3258 239.788 11.9233 239.788C11.5207 239.788 11.1466 239.71 10.8011 239.553C10.4591 239.393 10.1616 239.151 9.90869 238.827C9.65576 238.502 9.45804 238.093 9.31554 237.598C9.17304 237.099 9.10179 236.513 9.10179 235.839C9.10179 235.163 9.17304 234.577 9.31554 234.081C9.45804 233.586 9.65576 233.177 9.90869 232.852C10.1616 232.528 10.4591 232.288 10.8011 232.131C11.1466 231.971 11.5207 231.89 11.9233 231.89C12.3258 231.89 12.6999 231.971 13.0454 232.131C13.3946 232.288 13.6956 232.528 13.9485 232.852C14.205 233.177 14.4045 233.586 14.547 234.081C14.6931 234.577 14.7661 235.163 14.7661 235.839ZM13.4035 235.839C13.4035 235.28 13.3625 234.817 13.2806 234.45C13.1986 234.083 13.0882 233.791 12.9493 233.574C12.8139 233.356 12.6571 233.205 12.479 233.119C12.3009 233.03 12.1156 232.986 11.9233 232.986C11.7345 232.986 11.551 233.03 11.3729 233.119C11.1983 233.205 11.0433 233.356 10.908 233.574C10.7726 233.791 10.6639 234.083 10.582 234.45C10.5036 234.817 10.4644 235.28 10.4644 235.839C10.4644 236.399 10.5036 236.862 10.582 237.229C10.6639 237.596 10.7726 237.888 10.908 238.105C11.0433 238.322 11.1983 238.476 11.3729 238.565C11.551 238.65 11.7345 238.693 11.9233 238.693C12.1156 238.693 12.3009 238.65 12.479 238.565C12.6571 238.476 12.8139 238.322 12.9493 238.105C13.0882 237.888 13.1986 237.596 13.2806 237.229C13.3625 236.862 13.4035 236.399 13.4035 235.839Z" fill="#808080"/>
<path d="M3.21221 208.174C3.26564 207.804 3.36896 207.48 3.52214 207.202C3.67533 206.92 3.86592 206.687 4.09392 206.502C4.32548 206.313 4.5891 206.172 4.88478 206.08C5.18403 205.983 5.50465 205.935 5.84665 205.935C6.2029 205.935 6.52352 205.987 6.80851 206.09C7.09707 206.19 7.34288 206.331 7.54594 206.512C7.749 206.691 7.90397 206.901 8.01085 207.143C8.12128 207.385 8.1765 207.647 8.1765 207.929C8.1765 208.174 8.148 208.392 8.091 208.58C8.03756 208.766 7.95919 208.928 7.85588 209.067C7.75257 209.206 7.62432 209.323 7.47113 209.419C7.31795 209.516 7.14517 209.596 6.95279 209.66C7.41591 209.806 7.76147 210.029 7.98947 210.328C8.21747 210.627 8.33147 211.003 8.33147 211.455C8.33147 211.84 8.26022 212.18 8.11772 212.476C7.97522 212.772 7.78285 213.021 7.5406 213.224C7.29835 213.424 7.01692 213.575 6.6963 213.678C6.37924 213.782 6.04258 213.833 5.68634 213.833C5.29803 213.833 4.9596 213.789 4.67104 213.7C4.38248 213.611 4.13132 213.479 3.91758 213.304C3.70383 213.13 3.52214 212.916 3.37252 212.663C3.22289 212.41 3.09465 212.118 2.98777 211.787L3.57024 211.546C3.72342 211.482 3.86592 211.466 3.99773 211.498C4.1331 211.527 4.23107 211.598 4.29163 211.712C4.35576 211.837 4.42523 211.959 4.50004 212.081C4.57841 212.202 4.67104 212.31 4.77791 212.407C4.88478 212.499 5.00947 212.576 5.15197 212.636C5.29803 212.693 5.47081 212.722 5.67031 212.722C5.89474 212.722 6.09068 212.686 6.25811 212.615C6.42555 212.54 6.56449 212.444 6.67492 212.326C6.78892 212.209 6.87264 212.079 6.92608 211.936C6.98308 211.79 7.01157 211.644 7.01157 211.498C7.01157 211.313 6.99198 211.145 6.95279 210.996C6.91361 210.843 6.83167 210.713 6.70698 210.606C6.5823 210.499 6.40239 210.415 6.16727 210.355C5.93571 210.294 5.624 210.264 5.23212 210.264V209.323C5.55631 209.32 5.82527 209.289 6.03902 209.232C6.25277 209.175 6.42199 209.097 6.54667 208.997C6.67492 208.894 6.76398 208.771 6.81386 208.629C6.86373 208.486 6.88867 208.329 6.88867 208.158C6.88867 207.795 6.78714 207.519 6.58408 207.33C6.38102 207.141 6.11027 207.047 5.77184 207.047C5.61509 207.047 5.47081 207.07 5.339 207.116C5.20719 207.159 5.08784 207.221 4.98097 207.303C4.87766 207.382 4.79038 207.474 4.71913 207.581C4.64788 207.688 4.59444 207.806 4.55882 207.934C4.49826 208.098 4.4181 208.206 4.31835 208.26C4.22217 208.313 4.08501 208.326 3.90689 208.297L3.21221 208.174Z" fill="#808080"/>
<path d="M14.7661 209.884C14.7661 210.558 14.6931 211.144 14.547 211.642C14.4045 212.138 14.205 212.547 13.9485 212.871C13.6956 213.196 13.3946 213.438 13.0454 213.598C12.6999 213.755 12.3258 213.833 11.9233 213.833C11.5207 213.833 11.1466 213.755 10.8011 213.598C10.4591 213.438 10.1616 213.196 9.90869 212.871C9.65576 212.547 9.45804 212.138 9.31554 211.642C9.17304 211.144 9.10179 210.558 9.10179 209.884C9.10179 209.207 9.17304 208.621 9.31554 208.126C9.45804 207.631 9.65576 207.221 9.90869 206.897C10.1616 206.573 10.4591 206.333 10.8011 206.176C11.1466 206.016 11.5207 205.935 11.9233 205.935C12.3258 205.935 12.6999 206.016 13.0454 206.176C13.3946 206.333 13.6956 206.573 13.9485 206.897C14.205 207.221 14.4045 207.631 14.547 208.126C14.6931 208.621 14.7661 209.207 14.7661 209.884ZM13.4035 209.884C13.4035 209.325 13.3625 208.862 13.2806 208.495C13.1986 208.128 13.0882 207.836 12.9493 207.619C12.8139 207.401 12.6571 207.25 12.479 207.164C12.3009 207.075 12.1156 207.031 11.9233 207.031C11.7345 207.031 11.551 207.075 11.3729 207.164C11.1983 207.25 11.0433 207.401 10.908 207.619C10.7726 207.836 10.6639 208.128 10.582 208.495C10.5036 208.862 10.4644 209.325 10.4644 209.884C10.4644 210.444 10.5036 210.907 10.582 211.274C10.6639 211.641 10.7726 211.933 10.908 212.15C11.0433 212.367 11.1983 212.521 11.3729 212.61C11.551 212.695 11.7345 212.738 11.9233 212.738C12.1156 212.738 12.3009 212.695 12.479 212.61C12.6571 212.521 12.8139 212.367 12.9493 212.15C13.0882 211.933 13.1986 211.641 13.2806 211.274C13.3625 210.907 13.4035 210.444 13.4035 209.884Z" fill="#808080"/>
<path d="M11.6664 289.276C11.6664 289.95 11.5933 290.536 11.4473 291.034C11.3048 291.53 11.1053 291.939 10.8488 292.264C10.5958 292.588 10.2948 292.83 9.94568 292.99C9.60012 293.147 9.22606 293.225 8.8235 293.225C8.42095 293.225 8.04689 293.147 7.70133 292.99C7.35933 292.83 7.06187 292.588 6.80893 292.264C6.556 291.939 6.35828 291.53 6.21578 291.034C6.07328 290.536 6.00203 289.95 6.00203 289.276C6.00203 288.6 6.07328 288.014 6.21578 287.518C6.35828 287.023 6.556 286.613 6.80893 286.289C7.06187 285.965 7.35933 285.725 7.70133 285.568C8.04689 285.408 8.42095 285.327 8.8235 285.327C9.22606 285.327 9.60012 285.408 9.94568 285.568C10.2948 285.725 10.5958 285.965 10.8488 286.289C11.1053 286.613 11.3048 287.023 11.4473 287.518C11.5933 288.014 11.6664 288.6 11.6664 289.276ZM10.3037 289.276C10.3037 288.717 10.2627 288.254 10.1808 287.887C10.0989 287.52 9.98843 287.228 9.84949 287.011C9.71412 286.793 9.55737 286.642 9.37925 286.556C9.20113 286.467 9.01588 286.423 8.8235 286.423C8.63469 286.423 8.45123 286.467 8.2731 286.556C8.09854 286.642 7.94358 286.793 7.8082 287.011C7.67283 287.228 7.56417 287.52 7.48224 287.887C7.40386 288.254 7.36468 288.717 7.36468 289.276C7.36468 289.836 7.40386 290.299 7.48224 290.666C7.56417 291.033 7.67283 291.325 7.8082 291.542C7.94358 291.759 8.09854 291.913 8.2731 292.002C8.45123 292.087 8.63469 292.13 8.8235 292.13C9.01588 292.13 9.20113 292.087 9.37925 292.002C9.55737 291.913 9.71412 291.759 9.84949 291.542C9.98843 291.325 10.0989 291.033 10.1808 290.666C10.2627 290.299 10.3037 289.836 10.3037 289.276Z" fill="#808080"/>
<path d="M8.16581 265.433V266.421H3.89086V265.433H5.45656V260.928C5.45656 260.75 5.4619 260.566 5.47259 260.378L4.3611 261.308C4.29698 261.357 4.23285 261.389 4.16873 261.404C4.10817 261.414 4.04939 261.414 3.99239 261.404C3.93895 261.393 3.89086 261.375 3.84811 261.35C3.80536 261.322 3.7733 261.291 3.75192 261.259L3.33511 260.688L5.69168 258.684H6.77645V265.433H8.16581Z" fill="#808080"/>
<path d="M14.7661 262.558C14.7661 263.231 14.6931 263.817 14.547 264.316C14.4045 264.811 14.205 265.221 13.9485 265.545C13.6956 265.869 13.3946 266.111 13.0454 266.272C12.6999 266.429 12.3258 266.507 11.9233 266.507C11.5207 266.507 11.1466 266.429 10.8011 266.272C10.4591 266.111 10.1616 265.869 9.90869 265.545C9.65576 265.221 9.45804 264.811 9.31554 264.316C9.17304 263.817 9.10179 263.231 9.10179 262.558C9.10179 261.881 9.17304 261.295 9.31554 260.8C9.45804 260.305 9.65576 259.895 9.90869 259.571C10.1616 259.247 10.4591 259.006 10.8011 258.849C11.1466 258.689 11.5207 258.609 11.9233 258.609C12.3258 258.609 12.6999 258.689 13.0454 258.849C13.3946 259.006 13.6956 259.247 13.9485 259.571C14.205 259.895 14.4045 260.305 14.547 260.8C14.6931 261.295 14.7661 261.881 14.7661 262.558ZM13.4035 262.558C13.4035 261.999 13.3625 261.535 13.2806 261.169C13.1986 260.802 13.0882 260.509 12.9493 260.292C12.8139 260.075 12.6571 259.923 12.479 259.838C12.3009 259.749 12.1156 259.704 11.9233 259.704C11.7345 259.704 11.551 259.749 11.3729 259.838C11.1983 259.923 11.0433 260.075 10.908 260.292C10.7726 260.509 10.6639 260.802 10.582 261.169C10.5036 261.535 10.4644 261.999 10.4644 262.558C10.4644 263.117 10.5036 263.58 10.582 263.947C10.6639 264.314 10.7726 264.606 10.908 264.824C11.0433 265.041 11.1983 265.194 11.3729 265.283C11.551 265.369 11.7345 265.411 11.9233 265.411C12.1156 265.411 12.3009 265.369 12.479 265.283C12.6571 265.194 12.8139 265.041 12.9493 264.824C13.0882 264.606 13.1986 264.314 13.2806 263.947C13.3625 263.58 13.4035 263.117 13.4035 262.558Z" fill="#808080"/>
<path d="M8.4704 99.1469V99.7187C8.4704 99.8897 8.45259 100.029 8.41697 100.136C8.38134 100.239 8.34572 100.326 8.31009 100.397L5.38175 106.425C5.32119 106.55 5.23569 106.657 5.12525 106.746C5.01481 106.831 4.86697 106.874 4.68172 106.874H3.7252L6.71233 100.969C6.78001 100.848 6.84592 100.738 6.91004 100.638C6.97773 100.535 7.05254 100.437 7.13448 100.344H3.43664C3.35471 100.344 3.28346 100.314 3.22289 100.253C3.16233 100.193 3.13205 100.121 3.13205 100.039V99.1469H8.4704Z" fill="#808080"/>
<path d="M14.7661 103.01C14.7661 103.684 14.6931 104.27 14.547 104.769C14.4045 105.264 14.205 105.673 13.9485 105.998C13.6956 106.322 13.3946 106.564 13.0454 106.724C12.6999 106.881 12.3258 106.959 11.9233 106.959C11.5207 106.959 11.1466 106.881 10.8011 106.724C10.4591 106.564 10.1616 106.322 9.90869 105.998C9.65576 105.673 9.45804 105.264 9.31554 104.769C9.17304 104.27 9.10179 103.684 9.10179 103.01C9.10179 102.334 9.17304 101.748 9.31554 101.252C9.45804 100.757 9.65576 100.347 9.90869 100.023C10.1616 99.6991 10.4591 99.4587 10.8011 99.3019C11.1466 99.1416 11.5207 99.0614 11.9233 99.0614C12.3258 99.0614 12.6999 99.1416 13.0454 99.3019C13.3946 99.4587 13.6956 99.6991 13.9485 100.023C14.205 100.347 14.4045 100.757 14.547 101.252C14.6931 101.748 14.7661 102.334 14.7661 103.01ZM13.4035 103.01C13.4035 102.451 13.3625 101.988 13.2806 101.621C13.1986 101.254 13.0882 100.962 12.9493 100.745C12.8139 100.527 12.6571 100.376 12.479 100.29C12.3009 100.201 12.1156 100.157 11.9233 100.157C11.7345 100.157 11.551 100.201 11.3729 100.29C11.1983 100.376 11.0433 100.527 10.908 100.745C10.7726 100.962 10.6639 101.254 10.582 101.621C10.5036 101.988 10.4644 102.451 10.4644 103.01C10.4644 103.57 10.5036 104.033 10.582 104.4C10.6639 104.767 10.7726 105.059 10.908 105.276C11.0433 105.493 11.1983 105.647 11.3729 105.736C11.551 105.821 11.7345 105.864 11.9233 105.864C12.1156 105.864 12.3009 105.821 12.479 105.736C12.6571 105.647 12.8139 105.493 12.9493 105.276C13.0882 105.059 13.1986 104.767 13.2806 104.4C13.3625 104.033 13.4035 103.57 13.4035 103.01Z" fill="#808080"/>
<path d="M4.80463 155.389C4.97563 155.354 5.1395 155.329 5.29625 155.315C5.453 155.297 5.6044 155.288 5.75046 155.288C6.15658 155.288 6.51461 155.348 6.82455 155.469C7.13448 155.591 7.39454 155.758 7.60473 155.972C7.81491 156.186 7.97344 156.437 8.08031 156.725C8.18719 157.01 8.24062 157.318 8.24062 157.65C8.24062 158.059 8.16759 158.433 8.02153 158.772C7.87903 159.11 7.67954 159.401 7.42304 159.643C7.16654 159.882 6.86195 160.067 6.50927 160.199C6.16015 160.33 5.77896 160.396 5.36572 160.396C5.12347 160.396 4.89369 160.371 4.67638 160.322C4.45907 160.272 4.25423 160.206 4.06186 160.124C3.87304 160.038 3.6967 159.942 3.53283 159.835C3.37252 159.725 3.22824 159.609 3.09999 159.488L3.50611 158.927C3.59161 158.806 3.70383 158.745 3.84276 158.745C3.93183 158.745 4.02267 158.774 4.11529 158.831C4.20792 158.888 4.31301 158.95 4.43057 159.018C4.55169 159.085 4.69241 159.148 4.85272 159.205C5.0166 159.262 5.21253 159.29 5.44053 159.29C5.68278 159.29 5.89652 159.251 6.08177 159.173C6.26702 159.094 6.42021 158.986 6.54133 158.847C6.66602 158.704 6.75864 158.537 6.8192 158.344C6.88333 158.148 6.91539 157.937 6.91539 157.709C6.91539 157.288 6.79248 156.96 6.54667 156.725C6.30443 156.487 5.94462 156.367 5.46725 156.367C5.10031 156.367 4.72447 156.435 4.33973 156.57L3.5168 156.335L4.15804 152.584H7.97344V153.145C7.97344 153.334 7.91466 153.487 7.7971 153.605C7.67954 153.722 7.48004 153.781 7.1986 153.781H5.07716L4.80463 155.389Z" fill="#808080"/>
<path d="M14.7661 156.447C14.7661 157.121 14.6931 157.707 14.547 158.205C14.4045 158.701 14.205 159.11 13.9485 159.435C13.6956 159.759 13.3946 160.001 13.0454 160.161C12.6999 160.318 12.3258 160.396 11.9233 160.396C11.5207 160.396 11.1466 160.318 10.8011 160.161C10.4591 160.001 10.1616 159.759 9.90869 159.435C9.65576 159.11 9.45804 158.701 9.31554 158.205C9.17304 157.707 9.10179 157.121 9.10179 156.447C9.10179 155.771 9.17304 155.184 9.31554 154.689C9.45804 154.194 9.65576 153.784 9.90869 153.46C10.1616 153.136 10.4591 152.896 10.8011 152.739C11.1466 152.579 11.5207 152.498 11.9233 152.498C12.3258 152.498 12.6999 152.579 13.0454 152.739C13.3946 152.896 13.6956 153.136 13.9485 153.46C14.205 153.784 14.4045 154.194 14.547 154.689C14.6931 155.184 14.7661 155.771 14.7661 156.447ZM13.4035 156.447C13.4035 155.888 13.3625 155.425 13.2806 155.058C13.1986 154.691 13.0882 154.399 12.9493 154.182C12.8139 153.964 12.6571 153.813 12.479 153.727C12.3009 153.638 12.1156 153.594 11.9233 153.594C11.7345 153.594 11.551 153.638 11.3729 153.727C11.1983 153.813 11.0433 153.964 10.908 154.182C10.7726 154.399 10.6639 154.691 10.582 155.058C10.5036 155.425 10.4644 155.888 10.4644 156.447C10.4644 157.007 10.5036 157.47 10.582 157.837C10.6639 158.204 10.7726 158.496 10.908 158.713C11.0433 158.93 11.1983 159.084 11.3729 159.173C11.551 159.258 11.7345 159.301 11.9233 159.301C12.1156 159.301 12.3009 159.258 12.479 159.173C12.6571 159.084 12.8139 158.93 12.9493 158.713C13.0882 158.496 13.1986 158.204 13.2806 157.837C13.3625 157.47 13.4035 157.007 13.4035 156.447Z" fill="#808080"/>
<path d="M5.4245 128.671L5.15731 129.002C5.30694 128.927 5.46725 128.87 5.63825 128.831C5.81281 128.788 5.99984 128.767 6.19933 128.767C6.49146 128.767 6.77467 128.815 7.04898 128.911C7.32685 129.008 7.57088 129.154 7.78107 129.35C7.99125 129.542 8.16047 129.782 8.28872 130.071C8.41697 130.359 8.48109 130.696 8.48109 131.081C8.48109 131.441 8.41519 131.779 8.28337 132.096C8.15156 132.41 7.96632 132.684 7.72763 132.919C7.48895 133.154 7.20039 133.339 6.86195 133.475C6.52708 133.61 6.15658 133.678 5.75046 133.678C5.33722 133.678 4.96672 133.612 4.63897 133.48C4.31123 133.348 4.03157 133.165 3.80001 132.93C3.56845 132.691 3.39033 132.406 3.26564 132.075C3.14452 131.74 3.08396 131.369 3.08396 130.963C3.08396 130.6 3.15699 130.228 3.30305 129.846C3.45267 129.462 3.68245 129.063 3.99239 128.649L5.83596 126.175C5.90009 126.09 5.99271 126.017 6.11383 125.956C6.23852 125.896 6.38102 125.865 6.54133 125.865H7.71694L5.4245 128.671ZM5.72374 132.598C5.93393 132.598 6.1263 132.563 6.30086 132.492C6.47899 132.42 6.63039 132.321 6.75508 132.192C6.88333 132.064 6.98307 131.914 7.05432 131.743C7.12557 131.569 7.1612 131.38 7.1612 131.177C7.1612 130.956 7.12736 130.758 7.05967 130.584C6.99198 130.406 6.89579 130.256 6.77111 130.135C6.64642 130.01 6.4968 129.916 6.32224 129.852C6.14768 129.788 5.9553 129.756 5.74512 129.756C5.53493 129.756 5.34434 129.791 5.17334 129.863C5.00235 129.934 4.85628 130.034 4.73516 130.162C4.61404 130.286 4.51963 130.436 4.45194 130.611C4.38426 130.782 4.35041 130.967 4.35041 131.166C4.35041 131.38 4.37891 131.576 4.43591 131.754C4.49648 131.929 4.58376 132.078 4.69775 132.203C4.81532 132.328 4.9596 132.426 5.13059 132.497C5.30159 132.565 5.49931 132.598 5.72374 132.598Z" fill="#808080"/>
<path d="M14.7661 129.729C14.7661 130.402 14.6931 130.988 14.547 131.487C14.4045 131.982 14.205 132.392 13.9485 132.716C13.6956 133.04 13.3946 133.282 13.0454 133.443C12.6999 133.6 12.3258 133.678 11.9233 133.678C11.5207 133.678 11.1466 133.6 10.8011 133.443C10.4591 133.282 10.1616 133.04 9.90869 132.716C9.65576 132.392 9.45804 131.982 9.31554 131.487C9.17304 130.988 9.10179 130.402 9.10179 129.729C9.10179 129.052 9.17304 128.466 9.31554 127.971C9.45804 127.476 9.65576 127.066 9.90869 126.742C10.1616 126.418 10.4591 126.177 10.8011 126.02C11.1466 125.86 11.5207 125.78 11.9233 125.78C12.3258 125.78 12.6999 125.86 13.0454 126.02C13.3946 126.177 13.6956 126.418 13.9485 126.742C14.205 127.066 14.4045 127.476 14.547 127.971C14.6931 128.466 14.7661 129.052 14.7661 129.729ZM13.4035 129.729C13.4035 129.17 13.3625 128.706 13.2806 128.34C13.1986 127.973 13.0882 127.68 12.9493 127.463C12.8139 127.246 12.6571 127.094 12.479 127.009C12.3009 126.92 12.1156 126.875 11.9233 126.875C11.7345 126.875 11.551 126.92 11.3729 127.009C11.1983 127.094 11.0433 127.246 10.908 127.463C10.7726 127.68 10.6639 127.973 10.582 128.34C10.5036 128.706 10.4644 129.17 10.4644 129.729C10.4644 130.288 10.5036 130.751 10.582 131.118C10.6639 131.485 10.7726 131.777 10.908 131.995C11.0433 132.212 11.1983 132.365 11.3729 132.454C11.551 132.54 11.7345 132.582 11.9233 132.582C12.1156 132.582 12.3009 132.54 12.479 132.454C12.6571 132.365 12.8139 132.212 12.9493 131.995C13.0882 131.777 13.1986 131.485 13.2806 131.118C13.3625 130.751 13.4035 130.288 13.4035 129.729Z" fill="#808080"/>
<path d="M25.2474 26.0924H53.767M53.767 26.0924H80.4661M53.767 26.0924L53.767 52.7915M53.767 26.0924V0M80.4661 26.0924H107.165M80.4661 26.0924V52.7915M80.4661 26.0924V0M107.165 26.0924H133.864M107.165 26.0924V52.7915M107.165 26.0924V0M133.864 26.0924H160.564M133.864 26.0924V52.7915M133.864 26.0924V0M160.564 26.0924H187.263M160.564 26.0924V52.7915M160.564 26.0924V0M187.263 26.0924H213.962M187.263 26.0924V52.7915M187.263 26.0924V0M213.962 26.0924H240.661M213.962 26.0924V52.7915M213.962 26.0924V0M240.661 26.0924H241.268M240.661 26.0924V52.7915M240.661 26.0924V0M25.2474 132.889H53.767M53.767 132.889H80.4662M53.767 132.889V159.588M53.767 132.889L53.767 106.19M80.4662 132.889H107.165M80.4662 132.889V159.588M80.4662 132.889V106.19M107.165 132.889H133.865M107.165 132.889V159.588M107.165 132.889L107.165 106.19M133.865 132.889H160.564M133.865 132.889V159.588M133.865 132.889L133.864 106.19M160.564 132.889H187.263M160.564 132.889V159.588M160.564 132.889L160.564 106.19M187.263 132.889H213.962M187.263 132.889V159.588M187.263 132.889V106.19M213.962 132.889H240.661M213.962 132.889V159.588M213.962 132.889V106.19M240.661 132.889H241.268M240.661 132.889V159.588M240.661 132.889L240.661 106.19M25.2474 106.19H53.767M53.767 106.19H80.4662M53.767 106.19V79.4907M80.4662 106.19H107.165M80.4662 106.19V79.4907M107.165 106.19H133.864M107.165 106.19V79.4907M133.864 106.19H160.564M133.864 106.19V79.4907M160.564 106.19H187.263M160.564 106.19V79.4907M187.263 106.19H213.962M187.263 106.19V79.4907M213.962 106.19H240.661M213.962 106.19V79.4907M240.661 106.19H241.268M240.661 106.19V79.4907M25.2474 79.4907H53.767M53.767 79.4907H80.4662M53.767 79.4907V52.7915M80.4662 79.4907H107.165M80.4662 79.4907L80.4661 52.7915M107.165 79.4907H133.864M107.165 79.4907V52.7915M133.864 79.4907H160.564M133.864 79.4907V52.7915M160.564 79.4907H187.263M160.564 79.4907V52.7915M187.263 79.4907H213.962M187.263 79.4907L187.263 52.7915M213.962 79.4907H240.661M213.962 79.4907L213.962 52.7915M240.661 79.4907H241.268M240.661 79.4907V52.7915M25.2474 52.7915H53.767M53.767 52.7915H80.4661M80.4661 52.7915H107.165M107.165 52.7915H133.864M133.864 52.7915H160.564M160.564 52.7915H187.263M187.263 52.7915H213.962M213.962 52.7915H240.661M240.661 52.7915H241.268M25.2474 212.987H53.767M53.767 212.987H80.4662M53.767 212.987V213.593M53.767 212.987V186.287M80.4662 212.987H107.165M80.4662 212.987V213.593M80.4662 212.987V186.287M107.165 212.987H133.865M107.165 212.987V213.593M107.165 212.987V186.287M133.865 212.987H160.564M133.865 212.987V213.593M133.865 212.987V186.287M160.564 212.987H187.263M160.564 212.987V213.593M160.564 212.987V186.287M187.263 212.987H213.962M187.263 212.987V213.593M187.263 212.987V186.287M213.962 212.987H240.661M213.962 212.987V213.593M213.962 212.987V186.287M240.661 212.987H241.268M240.661 212.987V213.593M240.661 212.987V186.287M25.2474 186.287H53.767M53.767 186.287H80.4662M53.767 186.287L53.767 159.588M80.4662 186.287H107.165M80.4662 186.287L80.4662 159.588M107.165 186.287H133.865M107.165 186.287V159.588M133.865 186.287H160.564M133.865 186.287V159.588M160.564 186.287H187.263M160.564 186.287V159.588M187.263 186.287H213.962M187.263 186.287V159.588M213.962 186.287H240.661M213.962 186.287L213.962 159.588M240.661 186.287H241.268M240.661 186.287V159.588M25.2474 159.588H53.767M53.767 159.588H80.4662M80.4662 159.588H107.165M107.165 159.588H133.865M133.865 159.588H160.564M160.564 159.588H187.263M187.263 159.588H213.962M213.962 159.588H240.661M240.661 159.588H241.268M241.285 239.077H269.805M269.805 239.077H296.504M269.805 239.077V265.776M269.805 239.077V212.984M296.504 239.077H323.203M296.504 239.077V265.776M296.504 239.077V212.984M323.203 239.077H349.902M323.203 239.077V265.776M323.203 239.077V212.984M349.902 239.077H376.602M349.902 239.077L349.902 265.776M349.902 239.077V212.984M376.602 239.077H403.301M376.602 239.077V265.776M376.602 239.077V212.984M403.301 239.077H430M403.301 239.077V265.776M403.301 239.077V212.984M430 239.077V265.776M430 239.077V212.984V213.422M430 239.077H456.699M241.285 292.475H269.805M269.805 292.475H296.504M269.805 292.475V265.776M296.504 292.475H323.203M296.504 292.475V265.776M323.203 292.475H349.902M323.203 292.475V265.776M349.902 292.475H376.602M349.902 292.475V265.776M376.602 292.475H403.301M376.602 292.475V265.776M403.301 292.475H430M403.301 292.475L403.301 265.776M430 292.475V265.776M430 292.475H456.699M241.285 265.776H269.805M269.805 265.776H296.504M296.504 265.776H323.203M323.203 265.776H349.902M349.902 265.776H376.602M376.602 265.776H403.301M403.301 265.776H430M430 265.776H456.699M25.2474 239.077H53.767M53.767 239.077H80.4662M53.767 239.077V265.776M53.767 239.077V212.984M80.4662 239.077H107.165M80.4662 239.077V265.776M80.4662 239.077L80.4661 212.984M107.165 239.077H133.864M107.165 239.077L107.165 265.776M107.165 239.077V212.984M133.864 239.077H160.564M133.864 239.077L133.865 265.776M133.864 239.077V212.984M160.564 239.077H187.263M160.564 239.077L160.564 265.776M160.564 239.077V212.984M187.263 239.077H213.962M187.263 239.077V265.776M187.263 239.077L187.263 212.984M213.962 239.077H240.661M213.962 239.077V265.776M213.962 239.077V212.984M240.661 239.077H241.268M240.661 239.077V265.776M240.661 239.077V212.984M25.2474 292.475H53.767M53.767 292.475H80.4662M53.767 292.475V265.776M80.4662 292.475H107.165M80.4662 292.475L80.4662 265.776M107.165 292.475H133.865M107.165 292.475V265.776M133.865 292.475H160.564M133.865 292.475V265.776M160.564 292.475H187.263M160.564 292.475V265.776M187.263 292.475H213.962M187.263 292.475V265.776M213.962 292.475H240.661M213.962 292.475V265.776M240.661 292.475H241.268M240.661 292.475V265.776M25.2474 265.776H53.767M53.767 265.776H80.4662M80.4662 265.776H107.165M107.165 265.776H133.865M133.865 265.776H160.564M160.564 265.776H187.263M187.263 265.776H213.962M213.962 265.776H240.661M240.661 265.776H241.268M241.285 26.0924H269.805M269.805 26.0924H296.504M269.805 26.0924V52.7915M269.805 26.0924V0M296.504 26.0924H323.203M296.504 26.0924V52.7915M296.504 26.0924V0M323.203 26.0924H349.902M323.203 26.0924V52.7915M323.203 26.0924V0M349.902 26.0924H376.602M349.902 26.0924V52.7915M349.902 26.0924V0M376.602 26.0924H403.301M376.602 26.0924V52.7915M376.602 26.0924V0M403.301 26.0924H430M403.301 26.0924V52.7915M403.301 26.0924V0M430 26.0924V52.7915M430 26.0924V0M430 26.0924L456.699 26.0924M241.285 132.889H269.805M269.805 132.889H296.504M269.805 132.889V159.588M269.805 132.889V106.19M296.504 132.889H323.203M296.504 132.889V159.588M296.504 132.889V106.19M323.203 132.889H349.902M323.203 132.889V159.588M323.203 132.889V106.19M349.902 132.889H376.602M349.902 132.889V159.588M349.902 132.889L349.902 106.19M376.602 132.889H403.301M376.602 132.889V159.588M376.602 132.889V106.19M403.301 132.889H430M403.301 132.889V159.588M403.301 132.889V106.19M430 132.889V159.588M430 132.889V106.19M430 132.889H456.699M241.285 106.19H269.805M269.805 106.19H296.504M269.805 106.19V79.4907M296.504 106.19H323.203M296.504 106.19V79.4907M323.203 106.19H349.902M323.203 106.19V79.4907M349.902 106.19H376.602M349.902 106.19V79.4907M376.602 106.19H403.301M376.602 106.19V79.4907M403.301 106.19H430M403.301 106.19V79.4907M430 106.19V79.4907M430 106.19H456.699M241.285 79.4907H269.805M269.805 79.4907H296.504M269.805 79.4907V52.7915M296.504 79.4907H323.203M296.504 79.4907V52.7915M323.203 79.4907H349.902M323.203 79.4907V52.7915M349.902 79.4907H376.602M349.902 79.4907V52.7915M376.602 79.4907H403.301M376.602 79.4907V52.7915M403.301 79.4907H430M403.301 79.4907V52.7915M430 79.4907V52.7915M430 79.4907H456.699M241.285 52.7915H269.805M269.805 52.7915H296.504M296.504 52.7915H323.203M323.203 52.7915H349.902M349.902 52.7915H376.602M376.602 52.7915H403.301M403.301 52.7915H430M430 52.7915H456.699M241.285 212.987L269.805 213.078M269.805 213.078L296.504 213.164M269.805 213.078V213.593M269.805 213.078V186.287M296.504 213.164L323.203 213.25M296.504 213.164V213.593M296.504 213.164V186.287M323.203 213.25L349.902 213.336M323.203 213.25V213.593M323.203 213.25V186.287M349.902 213.336L376.602 213.422M349.902 213.336V213.593M349.902 213.336V186.287M376.602 213.422L403.301 213.508M376.602 213.422V213.593M376.602 213.422V186.287M403.301 213.508L430 213.593M403.301 213.508V213.593M403.301 213.508V186.287M430 213.593V186.287M430 213.593V213.422M241.285 186.287H269.805M269.805 186.287H296.504M269.805 186.287V159.588M296.504 186.287H323.203M296.504 186.287V159.588M323.203 186.287H349.902M323.203 186.287V159.588M349.902 186.287H376.602M349.902 186.287V159.588M376.602 186.287H403.301M376.602 186.287V159.588M403.301 186.287H430M403.301 186.287L403.301 159.588M430 186.287V159.588M430 186.287H456.699M241.285 159.588H269.805M269.805 159.588H296.504M296.504 159.588H323.203M323.203 159.588H349.902M349.902 159.588H376.602M376.602 159.588H403.301M403.301 159.588H430M430 159.588H456.699M24.6406 293.08L24.6406 9.29832e-05M456.699 239.077H483.398M456.699 239.077V265.776M456.699 239.077L456.699 213.508M483.398 239.077V265.776M483.398 239.077V213.593M483.398 239.077H510.098M456.699 292.475H483.398M456.699 292.475L456.699 265.776M483.398 292.475V265.776M483.398 292.475H510.098M456.699 265.776H483.398M483.398 265.776H510.098M430 213.422L456.699 213.508M483.398 213.593V212.984M483.398 213.593L456.699 213.508M483.398 213.593V213.422M483.398 212.984V186.287M483.398 212.984V213.422M456.699 213.508L456.699 212.984M456.699 213.508V213.593M456.699 213.508V186.287M456.699 26.0924H483.398M456.699 26.0924V52.7915M456.699 26.0924V1.43051e-06M483.398 26.0924V52.7915M483.398 26.0924V1.43051e-06M483.398 26.0924L510.098 26.0924M456.699 132.889H483.398M456.699 132.889V159.588M456.699 132.889V106.19M483.398 132.889V159.588M483.398 132.889V106.19M483.398 132.889H510.098M456.699 106.19H483.398M456.699 106.19V79.4907M483.398 106.19V79.4907M483.398 106.19H510.098M456.699 79.4907H483.398M456.699 79.4907V52.7915M483.398 79.4907V52.7915M483.398 79.4907H510.098M456.699 52.7915H483.398M483.398 52.7915H510.098M456.699 186.287H483.398M456.699 186.287L456.699 159.588M483.398 186.287V159.588M483.398 186.287H510.098M456.699 159.588H483.398M483.398 159.588H510.098M510.098 239.077H536.797M510.098 239.077V265.776M510.098 239.077L510.098 213.593V213.508M536.797 239.077V265.776M536.797 239.077V213.593M536.797 239.077H563.496M510.098 292.475H536.797M510.098 292.475L510.098 265.776M536.797 292.475V265.776M536.797 292.475H563.496M510.098 265.776H536.797M536.797 265.776H563.496M483.398 213.422L510.098 213.508M536.797 213.593V212.984V186.287M536.797 213.593L510.098 213.508M536.797 213.593V213.422L563.496 213.508M510.098 213.508L510.098 212.984M510.098 213.508V186.287M510.098 26.0924H536.797M510.098 26.0924V52.7915M510.098 26.0924V0M536.797 26.0924V52.7915M536.797 26.0924V0M536.797 26.0924H563.496M510.098 132.889H536.797M510.098 132.889V159.588M510.098 132.889V106.19M536.797 132.889V159.588M536.797 132.889V106.19M536.797 132.889H563.496M510.098 106.19H536.797M510.098 106.19V79.4907M536.797 106.19V79.4907M536.797 106.19H563.496M510.098 79.4907H536.797M510.098 79.4907V52.7915M536.797 79.4907V52.7915M536.797 79.4907H563.496M510.098 52.7915H536.797M536.797 52.7915H563.496M510.098 186.287H536.797M510.098 186.287L510.098 159.588M536.797 186.287V159.588M536.797 186.287H563.496M510.098 159.588H536.797M536.797 159.588H563.496M563.496 239.077H590.195M563.496 239.077V265.776M563.496 239.077V212.984M590.195 239.077V265.776M590.195 239.077V212.984V213.422M590.195 239.077H616.894M563.496 292.475H590.195M563.496 292.475L563.496 265.776M590.195 292.475V265.776M590.195 292.475H616.894M563.496 265.776H590.195M590.195 265.776H616.894M563.496 26.0924H590.195M563.496 26.0924V52.7915M563.496 26.0924V0M590.195 26.0924V52.7915M590.195 26.0924V0M590.195 26.0924L616.894 26.0924M563.496 132.889H590.195M563.496 132.889V159.588M563.496 132.889V106.19M590.195 132.889V159.588M590.195 132.889V106.19M590.195 132.889H616.894M563.496 106.19H590.195M563.496 106.19V79.4907M590.195 106.19V79.4907M590.195 106.19H616.894M563.496 79.4907H590.195M563.496 79.4907V52.7915M590.195 79.4907V52.7915M590.195 79.4907H616.894M563.496 52.7915H590.195M590.195 52.7915H616.894M563.496 213.508L590.195 213.593M563.496 213.508V213.593M563.496 213.508V186.287M590.195 213.593V186.287M590.195 213.593V213.422M563.496 186.287H590.195M563.496 186.287L563.496 159.588M590.195 186.287V159.588M590.195 186.287H616.894M563.496 159.588H590.195M590.195 159.588H616.894M616.894 239.077H643.593M616.894 239.077V265.776M616.894 239.077L616.894 213.508M643.593 239.077V265.776M643.593 239.077V213.593M643.593 239.077H670.292M616.894 292.475H643.593M616.894 292.475L616.894 265.776M643.593 292.475V265.776M643.593 292.475H670.292M616.894 265.776H643.593M643.593 265.776H670.292M590.195 213.422L616.894 213.508M643.593 213.593V212.984M643.593 213.593L616.894 213.508M643.593 213.593V213.422M643.593 212.984V186.287M643.593 212.984V213.422M616.894 213.508L616.894 212.984M616.894 213.508V213.593M616.894 213.508V186.287M616.894 26.0924H643.593M616.894 26.0924V52.7915M616.894 26.0924V1.60933e-06M643.593 26.0924V52.7915M643.593 26.0924V1.60933e-06M643.593 26.0924L670.292 26.0924M616.894 132.889H643.593M616.894 132.889V159.588M616.894 132.889V106.19M643.593 132.889V159.588M643.593 132.889V106.19M643.593 132.889H670.292M616.894 106.19H643.593M616.894 106.19V79.4907M643.593 106.19V79.4907M643.593 106.19H670.292M616.894 79.4907H643.593M616.894 79.4907V52.7915M643.593 79.4907V52.7915M643.593 79.4907H670.292M616.894 52.7915H643.593M643.593 52.7915H670.292M616.894 186.287H643.593M616.894 186.287L616.894 159.588M643.593 186.287V159.588M643.593 186.287H670.292M616.894 159.588H643.593M643.593 159.588H670.292M670.292 239.077H696.992M670.292 239.077V265.776M670.292 239.077V213.593V213.508M696.992 239.077V265.776M696.992 239.077V213.593M670.292 292.475H696.992V265.776M670.292 292.475V265.776M670.292 265.776H696.992M643.593 213.422L670.292 213.508M696.992 213.593V212.984V186.287M696.992 213.593L670.292 213.508M670.292 213.508V212.984M670.292 213.508V186.287M670.292 26.0924H696.992M670.292 26.0924V52.7915M670.292 26.0924V0M696.992 26.0924V52.7915M696.992 26.0924V0M670.292 132.889H696.992M670.292 132.889V159.588M670.292 132.889V106.19M696.992 132.889V159.588M696.992 132.889V106.19M670.292 106.19H696.992M670.292 106.19V79.4907M696.992 106.19V79.4907M670.292 79.4907H696.992M670.292 79.4907V52.7915M696.992 79.4907V52.7915M670.292 52.7915H696.992M670.292 186.287H696.992M670.292 186.287V159.588M696.992 186.287V159.588M670.292 159.588H696.992" stroke="#7F7F7F" stroke-width="1.21378"/>
</svg>
